<svg width="540" height="135" xmlns="http://www.w3.org/2000/svg">

 <g>
  <title>background</title>
  <rect fill="none" id="canvas_background" height="137" width="542" y="-1" x="-1"/>
 </g>
 <g>
  <title>Layer 1</title>
  <g id="svg_1">
   <g id="Layer_2"/>
   <g id="svg_2">
    <g id="svg_3">
     <path id="svg_4" d="m25.577,75.838c0.009,-0.004 0.01,-0.005 0.008,-0.004" fill="#FF6C0C"/>
     <path id="svg_5" d="m40.481,75.84c0,0 0.001,-0.006 -0.021,0.002c-0.016,-0.001 -0.033,-0.004 -0.049,-0.004c-1.207,0 -2.24,0.737 -2.677,1.787c-0.039,0.051 -0.045,0.073 -0.045,0.073l-7.066,15.373l-0.753,-17.24l-4.292,0.007l-0.687,0.002c-0.001,0.001 -0.004,0.002 -0.006,0.003c-0.025,-0.001 -0.05,-0.005 -0.075,-0.005c-1.589,-0.003 -2.167,1.049 -2.809,2.195l-10.344,17.641l2.53,-19.843l-5.112,-0.012c-0.055,-0.003 -0.4,0 -0.756,0c-1.852,0 -2.744,0.786 -2.874,2.326c-0.008,0.006 -0.014,0.206 -0.02,0.21l-2.755,28.776l11.14,0l8.729,-17.167l0.923,17.167l9.932,0l13.816,-31.301l-6.729,0.01z" fill="#FF6C0C"/>
     <path id="svg_6" d="m329.596,81.197l-11.148,11.138l1.979,-11.247c0,0 0.112,-2.364 -1.701,-3.922c-1.441,-1.24 -2.71,-1.182 -2.71,-1.182l-4.938,0.047l-5.494,31.307l10.229,-0.036l2.204,-12.517l5.565,12.553l11.919,0l-7.103,-14.621l10.857,-11.52l-9.659,0z" fill="#FF6C0C"/>
     <path id="svg_7" d="m52.864,101.729c-2.605,0 -3.49,-1.702 -2.909,-4.832c0.028,-0.134 0.026,-0.24 0.068,-0.385l17.213,-0.318c0.928,-2.43 1.474,-5.456 1.505,-6.784c0.115,-4.815 -3.548,-8.563 -9.621,-8.274c-8.246,0.391 -14.292,4.834 -17.02,13.618c-2.536,8.186 0.575,12.515 9.004,12.515c6.121,0 11.028,-2.343 13.683,-6.435c0.069,-0.092 0.137,-0.177 0.199,-0.273c0.248,-0.388 0.447,-0.807 0.649,-1.221c0.006,-0.014 0.569,-1.113 0.569,-1.113l-8.615,0c-0.858,2.065 -2.549,3.501 -4.725,3.502zm4.564,-15.154c2.922,0 2.913,2.218 2.854,3.876c-0.004,0.088 -0.006,0.176 -0.009,0.26c-0.01,0.097 -0.023,0.178 -0.029,0.263l-7.539,0.316l-0.266,0.005l-0.394,0l-0.025,0c1.233,-3.132 3.046,-4.72 5.408,-4.72z" fill="#FF6C0C"/>
     <path id="svg_8" d="m152.252,81.163c0,0 -2.123,0.062 -2.778,2.537l-0.334,1.319c-0.626,-1.742 -2.045,-3.822 -6.566,-3.822c-7.942,0 -12.712,6.31 -14.518,12.212c-2.772,9.015 2,12.214 6.927,12.214c1.602,0 4.398,-0.394 6.937,-2.55c0.115,-0.099 0.243,-0.187 0.358,-0.293c0.369,-0.281 0.745,-0.605 1.102,-0.952l-0.854,2.756c-0.847,2.789 -2.022,5.513 -6.029,5.513c-2.203,0 -3.172,-0.759 -2.889,-2.808l-8.257,0c-0.335,1.251 -0.401,3.387 0.864,5.479c1.82,3.01 5.744,4.118 9.203,4.24c4.309,0.153 7.132,-0.808 10.648,-3.5c4.27,-3.268 5.92,-10.381 5.92,-10.381l6.552,-21.993l-6.286,0.029zm-6.383,12.054c-0.909,2.95 -2.679,6.466 -5.997,6.466c-2.129,0 -2.781,-1.361 -2.752,-3.09c0.015,-1.032 0.275,-2.194 0.606,-3.276c1.233,-4.05 3.547,-6.467 6.182,-6.467c2.021,0 2.639,1.352 2.593,3.07c-0.026,1.035 -0.29,2.204 -0.632,3.297z" fill="#FF6C0C"/>
     <path id="svg_9" d="m94.263,81.163c0,0 -2.123,0.062 -2.778,2.537l-0.335,1.319c-0.626,-1.742 -2.044,-3.822 -6.565,-3.822c-7.943,0 -12.712,6.31 -14.518,12.212c-2.772,9.015 2,12.214 6.927,12.214c1.601,0 4.398,-0.394 6.937,-2.55c0.114,-0.099 0.243,-0.187 0.358,-0.293c0.369,-0.281 0.744,-0.605 1.1,-0.952l-0.854,2.756c-0.848,2.789 -2.022,5.513 -6.03,5.513c-2.201,0 -3.171,-0.759 -2.888,-2.808l-8.258,0c-0.335,1.251 -0.401,3.387 0.865,5.479c1.819,3.01 5.744,4.118 9.203,4.24c4.308,0.153 7.132,-0.808 10.648,-3.5c4.269,-3.268 5.92,-10.381 5.92,-10.381l6.552,-21.993l-6.284,0.029zm-6.383,12.054c-0.909,2.95 -2.678,6.466 -5.996,6.466c-2.129,0 -2.782,-1.361 -2.752,-3.09c0.013,-1.032 0.273,-2.194 0.605,-3.276c1.234,-4.05 3.547,-6.467 6.182,-6.467c2.022,0 2.639,1.352 2.593,3.07c-0.026,1.035 -0.29,2.204 -0.632,3.297z" fill="#FF6C0C"/>
     <path id="svg_10" d="m274.335,84.02c-2.098,-2.512 -6.671,-2.885 -9.209,-2.885c-4.632,0 -8.82,1.17 -11.203,3.133c-1.982,1.644 -2.625,3.732 -2.801,5.311l9.305,-0.309c0.241,-0.983 0.65,-1.776 1.278,-2.293c0.793,-0.635 1.697,-0.768 2.33,-0.768c0.814,0 1.458,0.259 1.842,0.66c1.435,1.488 0.315,3.684 0.317,3.711c-0.786,-0.031 -1.555,-0.049 -2.302,-0.049c-10.069,0 -15.596,2.929 -16.899,8.951c-1.071,4.981 1.629,7.842 7.397,7.842c3.145,0 5.622,-0.877 7.396,-2.636c0.127,-0.104 0.227,-0.205 0.343,-0.314c0.368,-0.319 0.952,-0.935 0.952,-0.935l-0.794,3.859l10.134,0l2.783,-16.688c0.629,-2.942 0.323,-5.16 -0.869,-6.59zm-11.086,15.472c-1.327,1.92 -3.113,2.124 -3.814,2.124c-1.736,0 -2.484,-0.984 -2.527,-2.144c-0.011,-0.266 0.015,-0.538 0.075,-0.813c0.68,-3.105 4.127,-3.196 7.815,-3.245l0.003,0c-0.211,1.189 -0.663,2.813 -1.552,4.078z" fill="#FF6C0C"/>
     <path id="svg_11" d="m125.212,84.021c-2.096,-2.515 -6.67,-2.887 -9.208,-2.887c-4.631,0 -8.82,1.169 -11.205,3.133c-1.979,1.644 -2.623,3.732 -2.798,5.31l9.304,-0.308c0.239,-0.983 0.648,-1.776 1.278,-2.293c0.792,-0.636 1.695,-0.768 2.328,-0.768c0.814,0 1.457,0.259 1.843,0.66c1.434,1.488 0.315,3.684 0.318,3.711c-0.787,-0.03 -1.555,-0.05 -2.304,-0.05c-10.068,0 -15.595,2.93 -16.899,8.951c-1.069,4.981 1.628,7.843 7.397,7.843c3.145,0 5.621,-0.877 7.4,-2.636c0.125,-0.104 0.223,-0.205 0.343,-0.314c0.366,-0.319 0.949,-0.936 0.949,-0.936l-0.795,3.86l9.601,0l3.319,-16.688c0.628,-2.941 0.322,-5.16 -0.871,-6.588zm-11.085,15.47c-1.326,1.921 -3.115,2.125 -3.815,2.125c-1.736,0 -2.482,-0.984 -2.527,-2.144c-0.008,-0.266 0.018,-0.538 0.078,-0.814c0.678,-3.104 4.125,-3.195 7.814,-3.246l0.003,0c-0.212,1.191 -0.664,2.815 -1.553,4.079z" fill="#FF6C0C"/>
     <path id="svg_12" d="m204.98,81.137c-2.794,-0.018 -5.081,0.277 -7.772,2.981c-0.99,1.088 -2.426,2.668 -1.729,1.889l0.238,-1.288c0.047,-0.206 0.074,-0.42 0.074,-0.64c0,-1.532 -1.189,-2.809 -2.694,-2.918c-0.032,-0.007 -0.053,-0.01 -0.053,-0.01l-6.22,0l-4.639,26.167l0.059,-0.029l9.458,0.029l2.566,-14.534c0.548,-3.172 2.358,-4.824 4.96,-5.028c3.95,-0.307 3.058,3.172 2.682,5.028l-2.588,14.525l10.226,0l2.628,-15.131c0.731,-3.493 2.335,-10.98 -7.196,-11.041z" fill="#FF6C0C"/>
     <path id="svg_13" d="m241.305,91.267c-0.11,-0.026 -0.216,-0.05 -0.315,-0.071c4.133,-1.168 5.846,-3.562 6.761,-7.062c0.577,-2.203 0.064,-4.328 -1.197,-5.825c-2.231,-2.619 -5.225,-2.339 -9.114,-2.339c-0.014,0 -12.804,0 -12.804,0l-5.871,31.271l11.748,0.095c2.782,0 5.934,0 8.779,-1.313c4.171,-1.952 5.749,-5.038 6.336,-7.282c0.549,-2.099 0.412,-3.823 -0.415,-5.127c-1.045,-1.655 -2.899,-2.182 -3.908,-2.347zm-4.368,6.516c-0.855,3.269 -4.242,3.036 -5.252,3.036l-3.226,-0.114l1.109,-6.393l3.555,0c1.276,0.01 4.707,0.078 3.814,3.471zm2.222,-12.433c-0.307,1.157 -1.124,2.18 -2.135,2.674c-0.731,0.344 -1.593,0.344 -2.901,0.344l-3.939,0.032l0.458,-0.037l1.169,-6.075l4.567,-0.022c0.837,0 1.701,0 2.371,0.645c0.527,0.527 0.682,1.437 0.41,2.439z" fill="#FF6C0C"/>
     <path id="svg_14" d="m164.203,96.588l17.216,-0.319c0.925,-2.428 1.473,-5.454 1.505,-6.782c0.115,-4.814 -3.547,-8.564 -9.622,-8.276c-8.245,0.392 -14.292,4.836 -17.023,13.62c-2.534,8.186 0.577,12.514 9.007,12.513c6.121,0 11.027,-2.341 13.681,-6.433c0.071,-0.093 0.139,-0.176 0.199,-0.274c0.25,-0.387 0.449,-0.807 0.651,-1.222c0.005,-0.011 0.57,-1.111 0.57,-1.111l-8.618,0c-0.858,2.065 -2.546,3.501 -4.724,3.503c-2.606,0 -3.489,-1.702 -2.91,-4.831c0.031,-0.137 0.026,-0.244 0.068,-0.388zm7.406,-9.939c2.922,0 2.913,2.222 2.856,3.877c-0.004,0.09 -0.01,0.178 -0.011,0.262c-0.007,0.097 -0.021,0.177 -0.029,0.261l-7.539,0.317l-0.266,0.006l-0.392,0l-0.028,0c1.233,-3.134 3.047,-4.723 5.409,-4.723z" fill="#FF6C0C"/>
     <path id="svg_15" d="m297.738,81.294c-2.796,-0.017 -5.081,0.277 -7.773,2.981c-0.99,1.087 -2.425,2.669 -1.729,1.891l0.237,-1.289c0.048,-0.205 0.073,-0.419 0.073,-0.641c0,-1.531 -1.188,-2.809 -2.691,-2.916c-0.033,-0.008 -0.054,-0.01 -0.054,-0.01l-6.22,0l-4.64,26.164l0.059,-0.027l9.458,0.027l2.566,-14.532c0.548,-3.172 2.359,-4.825 4.96,-5.028c3.951,-0.307 3.059,3.171 2.683,5.028l-2.589,14.524l10.228,0l2.627,-15.13c0.731,-3.494 2.335,-10.981 -7.195,-11.042z" fill="#FF6C0C"/>
     <path id="svg_16" d="m151.263,63.643c5.77,-0.994 8.323,-4.346 8.332,-4.5l3.46,0c2.28,0 4.636,-0.355 6.787,-1.878c2.104,-1.488 3.89,-4.019 5.541,-6.695c1.628,-2.629 2.915,-5.626 3.833,-8.905c1.482,-5.319 1.55,-9.523 0.197,-12.493c-1.388,-3.037 -4.234,-4.545 -8.469,-4.577c-1.417,-0.012 -3.918,0.216 -6.777,0.5c0,0 -4.591,0.578 -8.778,2.748c-5.441,2.816 -8.929,6.965 -10.514,9.355c-1.654,2.494 -3.542,5.63 -4.65,9.609c-1.589,5.691 -1.375,9.569 -0.106,12.438c1.277,2.895 5.534,5.362 11.144,4.398zm17.856,-34.121l0.464,-0.062c2.253,0 3.644,0.96 4.262,2.93c0.649,2.068 0.373,5.257 -0.801,9.478c-1.186,4.236 -2.636,7.436 -4.312,9.507c-1.582,1.953 -3.304,2.903 -5.269,2.903l-2.045,0l7.701,-24.756zm-20.117,16.048c4.455,-13.15 10.458,-15.887 13.681,-16.128l0.16,0c0,0 -5.255,17.251 -6.959,23.014c-1.224,4.138 -2.461,5.029 -3.503,5.634c-0.485,0.281 -0.909,0.522 -1.794,0.562c-3.526,0.16 -4.414,-4.729 -1.585,-13.082z" fill="#FF6C0C"/>
     <path id="svg_17" d="m264.847,50.369l4.559,0c0.377,0 0.732,-0.305 0.8,-0.681l1.986,-11.398c0.524,-2.987 1.393,-5.158 2.586,-6.454c1.154,-1.248 2.692,-1.858 4.704,-1.858c1.927,0 3.198,0.613 3.888,1.875c0.717,1.311 0.817,3.496 0.295,6.486l-4.13,23.582c-0.052,0.308 0.105,0.566 0.371,0.651l4.979,0c0.294,-0.085 0.545,-0.343 0.598,-0.651l4.11,-23.482c0.786,-4.494 0.379,-7.953 -1.211,-10.284c-1.101,-1.615 -2.782,-2.644 -4.938,-3.157c-0.991,-0.24 -2.056,-0.403 -3.267,-0.403c-1.163,0 -2.246,0.163 -3.285,0.403c-2.304,0.527 -4.317,1.592 -5.961,3.271c-2.347,2.393 -3.93,5.848 -4.703,10.271l-1.945,11.15c-0.065,0.374 0.187,0.679 0.564,0.679z" fill="#FF6C0C"/>
     <path id="svg_18" d="m313.901,53.514l-1.487,8.321c-0.067,0.376 0.186,0.682 0.562,0.682l4.56,0c0.375,0 0.733,-0.306 0.801,-0.682l1.461,-8.173c0.238,-1.368 0.574,-2.448 0.996,-3.217c0.382,-0.695 0.853,-1.176 1.446,-1.465c0.435,-0.215 1.362,-0.47 3.289,-0.47c0.374,0 0.734,-0.307 0.8,-0.681l0.628,-3.604c0.066,-0.375 -0.186,-0.681 -0.562,-0.681c-1.909,0 -3.561,0.167 -4.918,0.497c0.523,-2.967 1.389,-5.127 2.577,-6.417c1.155,-1.252 2.692,-1.859 4.706,-1.859c1.926,0 3.195,0.614 3.887,1.873c0.719,1.314 0.816,3.499 0.296,6.489l-3.079,17.869c-0.068,0.377 0.185,0.682 0.562,0.682l4.584,0c0.376,0 0.733,-0.305 0.8,-0.682l3.062,-17.771c0.785,-4.494 0.377,-7.954 -1.213,-10.285c-1.606,-2.36 -4.369,-3.556 -8.204,-3.556c-3.062,0 -5.727,0.848 -7.931,2.527c-0.198,-0.61 -0.291,-1.786 0.104,-4.053l0.745,-4.263l-5.947,0l-0.77,4.41c-0.434,2.485 -0.467,4.468 -0.105,5.896c0.334,1.29 0.998,2.269 1.983,2.917c-0.906,1.796 -1.587,3.981 -2.027,6.507l-0.166,0.955c-0.065,0.377 0.186,0.681 0.562,0.681l1.637,0c-0.641,0.553 -1.202,1.208 -1.681,1.962c-0.903,1.417 -1.558,3.297 -1.958,5.591z" fill="#FF6C0C"/>
     <path id="svg_19" d="m227.082,29.714c-0.928,-2.631 -3.154,-4.201 -6.617,-4.255c-4.951,-0.078 -6.635,-0.096 -6.635,-0.096c-1.646,0.038 -3.688,0.94 -4.724,3.56l-1.899,4.703c0,0 4.084,0.548 6.783,-0.762c2.066,-1.002 2.594,-2.404 2.594,-2.404s0.04,-0.002 0.095,-0.004l0,0.003c0.47,-0.006 1.332,-0.015 1.763,0c1.539,0.053 2.741,0.97 3.021,2.318c0.327,1.572 -0.015,3.866 -0.942,6.763l-0.018,-0.003c-0.409,1.262 -7.824,22.449 -7.824,22.449c-0.088,0.26 -0.017,0.483 0.161,0.596l5.156,0c0.256,-0.112 0.484,-0.335 0.575,-0.596l7.103,-20.458c1.915,-5.028 2.393,-9.002 1.408,-11.814z" fill="#FF6C0C"/>
     <path id="svg_20" d="m236.947,32.952c2.066,-1 2.595,-2.405 2.595,-2.405s0.154,-0.008 0.391,-0.017c0.516,0.041 0.962,0.042 1.123,0.142c0.347,0.208 0.483,0.343 0.557,0.868c0.062,0.429 0.061,1.375 -0.3,3.434l-1,5.734c-0.066,0.376 0.186,0.681 0.563,0.681l2.757,0l-9.024,20.284c-0.122,0.211 -0.141,0.451 -0.046,0.64c0.064,0.133 0.181,0.225 0.319,0.27l5.429,0c0.201,-0.061 0.382,-0.202 0.492,-0.394l11.355,-24.532c0.124,-0.212 0.139,-0.45 0.046,-0.638c-0.093,-0.187 -0.288,-0.3 -0.515,-0.3l-4.757,0l0.295,-1.697c0.628,-3.601 0.361,-6.048 -0.817,-7.479c-1.018,-1.234 -2.802,-2.009 -5.462,-2.07c-1.358,-0.032 -4.163,-0.021 -4.163,-0.021c-1.824,-0.011 -3.693,0.831 -4.723,3.559l-1.899,4.703c0,0 4.086,0.547 6.784,-0.762z" fill="#FF6C0C"/>
     <path id="svg_21" d="m297.873,32.097c2.065,-1.002 2.594,-2.405 2.594,-2.405s0.153,-0.007 0.39,-0.016c0.519,0.041 0.962,0.042 1.123,0.142c0.347,0.208 0.486,0.343 0.561,0.868c0.061,0.429 0.058,1.375 -0.302,3.434l-1,5.734c-0.067,0.375 0.186,0.682 0.563,0.682l2.756,0l-9.344,21.071c-0.12,0.211 -0.14,0.452 -0.046,0.641c0.064,0.133 0.181,0.225 0.318,0.269l5.429,0c0.202,-0.061 0.382,-0.202 0.492,-0.393l11.675,-25.322c0.125,-0.21 0.142,-0.45 0.049,-0.638c-0.096,-0.187 -0.29,-0.3 -0.517,-0.3l-4.757,0l0.295,-1.696c0.631,-3.603 0.36,-6.049 -0.817,-7.479c-1.02,-1.234 -2.803,-2.009 -5.462,-2.07c-1.356,-0.031 -4.162,-0.021 -4.162,-0.021c-1.823,-0.011 -3.694,0.831 -4.723,3.559l-1.899,4.703c0,-0.001 4.086,0.546 6.784,-0.763z" fill="#FF6C0C"/>
     <path id="svg_22" d="m186.912,57.267c-1.514,0.072 -5.203,0.023 -5.203,0.023c-1.349,-0.075 -3.829,1.317 -4.8,3.617l-1.929,4.779c0,0 4.15,0.556 6.895,-0.775c2.099,-1.018 2.635,-2.443 2.635,-2.443s0.282,0 0.684,0.001l0.963,0.052c12.917,0.204 11.907,-4.52 16.899,-22.222c0.478,-1.697 2.292,-7.334 1.873,-10.064c-0.483,-3.158 -3.034,-4.764 -7.386,-4.764l-2.556,-0.03l-4.292,0.03c-1.563,0.03 -3.926,1.54 -4.895,3.84l-1.834,4.556c0,0 4.151,0.557 6.893,-0.773c2.099,-1.019 2.637,-2.444 2.637,-2.444s0.213,-0.012 0.531,-0.022c0.631,-0.021 1.683,-0.031 2.373,0.076c1.34,0.209 1.552,0.176 1.826,1.56c0.458,2.334 -0.517,4.333 -1.92,9.23c-3.76,13.126 -3.358,15.488 -9.394,15.773z" fill="#FF6C0C"/>
    </g>
    <g id="svg_23">
     <path id="svg_24" d="m417.081,16.183c-0.813,0.451 -1.649,0.919 -2.498,1.401c0.773,-0.408 1.551,-0.81 2.333,-1.202c0.107,-0.131 0.165,-0.199 0.165,-0.199z" fill="#FF9012"/>
     <path id="svg_25" d="m468.379,2.791c0,0 -16.604,0.504 -31.424,5.572c9.977,-3.043 20.468,-4.908 31.312,-5.429c0.073,-0.094 0.112,-0.143 0.112,-0.143z" fill="#FF6C0C"/>
     <path id="svg_26" d="m371.686,57.265c-7.499,14.045 -8.818,26.742 -7.216,37.293c8.465,-13.335 19.312,-25.007 31.949,-34.415c5.435,-24.867 18.859,-41.771 20.497,-43.76c-0.782,0.392 -1.56,0.794 -2.333,1.202c-14.206,8.065 -32.654,20.499 -42.897,39.68z" fill="#FF9012"/>
     <path id="svg_27" d="m505.829,6.649c-0.271,-0.077 -0.535,-0.15 -0.801,-0.225c-14.108,-3.954 -22.365,-3.438 -22.783,-3.408c-0.011,0 -0.021,0.001 -0.021,0.001s15.209,2.043 15.246,25.623c0.006,2.767 -0.162,5.544 -0.477,8.311c12.246,2.29 23.884,6.311 34.646,11.806c0.153,-1.364 0.254,-2.694 0.294,-3.977c0.73,-24.516 -17.904,-35.77 -26.104,-38.131z" fill="#FF9012"/>
     <path id="svg_28" d="m414.237,49.013c11.464,-5.917 23.929,-10.16 37.077,-12.413c7.166,-20.608 15.872,-32.265 16.953,-33.667c-10.844,0.521 -21.335,2.386 -31.312,5.429c-0.422,0.144 -0.843,0.291 -1.262,0.442c0.001,0.001 -14.039,15.056 -21.456,40.209z" fill="#FF9012"/>
     <path id="svg_29" d="m379.177,123.771c2.215,1.981 4.663,3.563 7.24,4.795c3.539,-7.943 7.969,-15.398 13.164,-22.244c-3.092,-5.946 -5.269,-13.78 -5.424,-24.089c-0.05,-3.263 0.078,-6.445 0.347,-9.541c-10.891,8.513 -20.372,18.743 -28.044,30.28c3.265,10.103 8.907,17.384 12.717,20.799z" fill="#FF9012"/>
     <path id="svg_30" d="m444.114,65.102c1.004,-6.104 2.263,-11.788 3.678,-17.042c-12.977,2.65 -25.239,7.261 -36.474,13.497c-1.236,7.212 -1.833,15.029 -1.435,23.381c0.145,3.001 0.516,5.847 1.081,8.538c9.327,-9.04 20.209,-16.483 32.214,-21.884c0.256,-2.108 0.572,-4.275 0.936,-6.49z" fill="#FF9012"/>
     <path id="svg_31" d="m490.339,61.747c12.687,0.112 24.869,2.323 36.225,6.303c1.309,-3.32 2.39,-6.585 3.23,-9.743c-10.795,-5.24 -22.433,-9.008 -34.653,-11.061c-1.215,4.98 -2.855,9.85 -4.802,14.501z" fill="#FF9012"/>
     <path id="svg_32" d="m422.984,124.677c0,0 -15.05,-2.282 -23.402,-18.355c-5.195,6.846 -9.625,14.301 -13.164,22.244c13.454,6.423 30.469,3.16 36.566,-3.889z" fill="#FF6C0C"/>
     <path id="svg_33" d="m453.4,100.618c-10.644,-1.606 -12.085,-13.643 -10.222,-29.026c-12.005,5.4 -22.887,12.844 -32.214,21.884c4.654,22.147 22.508,33.848 35.457,34.602c39.431,2.296 68.631,-30.854 80.143,-60.027c-11.355,-3.98 -23.538,-6.191 -36.225,-6.303c-9.598,22.914 -26.648,40.423 -36.939,38.87z" fill="#FF6C0C"/>
    </g>
    <g id="svg_34">
     <path id="svg_35" d="m532.434,5.304l-1.019,0l0,-0.368l2.479,0l0,0.368l-1.024,0l0,2.982l-0.437,0l0,-2.982l0.001,0z" fill="#FF9012"/>
     <path id="svg_36" d="m537.092,6.815c-0.023,-0.467 -0.055,-1.029 -0.049,-1.447l-0.016,0c-0.113,0.393 -0.253,0.811 -0.422,1.273l-0.591,1.625l-0.329,0l-0.542,-1.595c-0.158,-0.473 -0.293,-0.905 -0.388,-1.303l-0.01,0c-0.009,0.418 -0.035,0.979 -0.064,1.481l-0.089,1.437l-0.413,0l0.233,-3.351l0.553,0l0.571,1.621c0.139,0.413 0.254,0.781 0.339,1.128l0.014,0c0.084,-0.338 0.204,-0.706 0.354,-1.128l0.596,-1.621l0.552,0l0.209,3.351l-0.423,0l-0.085,-1.471z" fill="#FF9012"/>
    </g>
    <g id="svg_37">
     <path id="svg_38" d="m345.525,77.977c0,1.677 -1.316,2.993 -3.031,2.993c-1.694,0 -3.048,-1.316 -3.048,-2.993c0,-1.642 1.354,-2.959 3.048,-2.959c1.714,0 3.031,1.317 3.031,2.959zm-5.322,0c0,1.317 0.974,2.362 2.309,2.362c1.299,0 2.255,-1.045 2.255,-2.345c0,-1.317 -0.956,-2.382 -2.273,-2.382c-1.317,0 -2.291,1.065 -2.291,2.365zm1.822,1.551l-0.687,0l0,-2.959c0.272,-0.054 0.65,-0.091 1.139,-0.091c0.558,0 0.811,0.091 1.027,0.217c0.162,0.126 0.288,0.36 0.288,0.65c0,0.323 -0.253,0.576 -0.614,0.686l0,0.035c0.289,0.108 0.452,0.325 0.542,0.722c0.091,0.45 0.145,0.632 0.216,0.74l-0.738,0c-0.091,-0.108 -0.145,-0.38 -0.235,-0.723c-0.054,-0.323 -0.233,-0.47 -0.612,-0.47l-0.325,0l0,1.193l-0.001,0zm0.017,-1.677l0.326,0c0.378,0 0.685,-0.128 0.685,-0.433c0,-0.271 -0.199,-0.451 -0.632,-0.451c-0.18,0 -0.306,0.017 -0.379,0.035l0,0.849z" fill="#FF6C0C"/>
    </g>
   </g>
  </g>
 </g>
</svg>